<svg width="35" height="35" viewBox="0 0 35 35" fill="none" xmlns="http://www.w3.org/2000/svg">
<circle cx="17.5" cy="17.5" r="17.5" fill="#E47673" fill-opacity="0.1"/>
<path d="M22.694 26H12.306C11.9598 25.9996 11.6279 25.8915 11.3831 25.6996C11.1383 25.5076 11.0005 25.2474 11 24.9759V10.0241C11.0005 9.75262 11.1383 9.49239 11.3831 9.30042C11.6279 9.10846 11.9598 9.00043 12.306 9H22.694C23.0402 9.00043 23.3721 9.10846 23.6169 9.30042C23.8617 9.49239 23.9995 9.75262 24 10.0241V24.9759C23.9995 25.2474 23.8617 25.5076 23.6169 25.6996C23.3721 25.8915 23.0402 25.9996 22.694 26ZM12.306 9.53702C12.1426 9.53702 11.9858 9.58794 11.8702 9.67858C11.7546 9.76922 11.6897 9.89216 11.6897 10.0203V24.9759C11.6897 25.1041 11.7546 25.227 11.8702 25.3177C11.9858 25.4083 12.1426 25.4592 12.306 25.4592H22.694C22.8574 25.4592 23.0142 25.4083 23.1298 25.3177C23.2454 25.227 23.3103 25.1041 23.3103 24.9759V10.0241C23.3103 9.89592 23.2454 9.77298 23.1298 9.68234C23.0142 9.5917 22.8574 9.54078 22.694 9.54078L12.306 9.53702ZM17.5 25.2825C17.2417 25.2825 16.9892 25.2225 16.7744 25.1099C16.5596 24.9974 16.3922 24.8375 16.2934 24.6503C16.1945 24.4632 16.1687 24.2573 16.2191 24.0586C16.2695 23.86 16.3938 23.6775 16.5765 23.5343C16.7592 23.3911 16.9919 23.2935 17.2452 23.254C17.4986 23.2145 17.7611 23.2348 17.9998 23.3123C18.2384 23.3898 18.4424 23.5211 18.5859 23.6895C18.7294 23.8579 18.806 24.0559 18.806 24.2584C18.8055 24.5299 18.6677 24.7901 18.4229 24.9821C18.1781 25.1741 17.8462 25.2821 17.5 25.2825ZM17.5 23.773C17.3781 23.773 17.2589 23.8013 17.1576 23.8544C17.0562 23.9075 16.9772 23.983 16.9305 24.0713C16.8839 24.1596 16.8717 24.2568 16.8955 24.3506C16.9193 24.4443 16.978 24.5305 17.0642 24.598C17.1504 24.6656 17.2602 24.7117 17.3798 24.7303C17.4993 24.749 17.6232 24.7394 17.7359 24.7028C17.8485 24.6662 17.9448 24.6043 18.0125 24.5248C18.0802 24.4453 18.1164 24.3519 18.1164 24.2563C18.1164 24.1281 18.0514 24.0052 17.9358 23.9145C17.8202 23.8239 17.6635 23.773 17.5 23.773ZM22.4844 22.8509H12.5156C12.4248 22.8509 12.3377 22.8226 12.2735 22.7723C12.2092 22.7219 12.1732 22.6536 12.1732 22.5824V11.0036C12.1732 10.9324 12.2092 10.8641 12.2735 10.8138C12.3377 10.7634 12.4248 10.7351 12.5156 10.7351H22.4844C22.5752 10.7351 22.6623 10.7634 22.7265 10.8138C22.7908 10.8641 22.8268 10.9324 22.8268 11.0036V22.5813C22.827 22.6167 22.8183 22.6517 22.8012 22.6844C22.784 22.7171 22.7588 22.7468 22.727 22.7719C22.6952 22.7969 22.6574 22.8168 22.6158 22.8304C22.5741 22.8439 22.5295 22.8509 22.4844 22.8509ZM12.8587 22.3139H22.1406V11.2732H12.8594L12.8587 22.3139ZM20.0306 19.1991H14.9694C14.8786 19.1991 14.7915 19.1709 14.7273 19.1205C14.6631 19.0701 14.627 19.0018 14.627 18.9306V16.5962H14.338C14.2691 16.5968 14.2016 16.581 14.1443 16.551C14.087 16.521 14.0425 16.4781 14.0168 16.428C13.991 16.3779 13.9852 16.3228 14 16.2701C14.0148 16.2173 14.0495 16.1692 14.0997 16.1322L17.263 13.7532C17.3269 13.7048 17.4122 13.6777 17.501 13.6777C17.5898 13.6777 17.6752 13.7048 17.739 13.7532L20.9024 16.1322C20.9526 16.1692 20.9873 16.2173 21.0021 16.2701C21.0169 16.3228 21.011 16.3779 20.9853 16.428C20.9595 16.4781 20.9151 16.521 20.8578 16.551C20.8005 16.581 20.733 16.5968 20.6641 16.5962H20.3744V18.9285C20.3745 18.9639 20.3658 18.999 20.3486 19.0318C20.3313 19.0646 20.306 19.0944 20.2741 19.1194C20.2421 19.1445 20.2041 19.1643 20.1623 19.1778C20.1205 19.1913 20.0758 19.1982 20.0306 19.1981V19.1991ZM15.3126 18.6621H19.6868V16.3266C19.6867 16.2795 19.7024 16.2333 19.7323 16.1924C19.7623 16.1516 19.8054 16.1177 19.8573 16.0941L17.5 14.3219L15.1427 16.0941C15.1946 16.1177 15.2377 16.1516 15.2677 16.1924C15.2976 16.2333 15.3133 16.2795 15.3132 16.3266L15.3126 18.6621ZM18.126 10.4194H16.874C16.7832 10.4194 16.6961 10.3911 16.6319 10.3407C16.5677 10.2904 16.5316 10.2221 16.5316 10.1508C16.5316 10.0796 16.5677 10.0113 16.6319 9.96097C16.6961 9.91062 16.7832 9.88233 16.874 9.88233H18.126C18.2168 9.88233 18.3039 9.91062 18.3681 9.96097C18.4323 10.0113 18.4684 10.0796 18.4684 10.1508C18.4684 10.2221 18.4323 10.2904 18.3681 10.3407C18.3039 10.3911 18.2168 10.4194 18.126 10.4194Z" fill="#E47673"/>
</svg>
