<svg width="58" height="58" viewBox="0 0 58 58" fill="none" xmlns="http://www.w3.org/2000/svg">
<circle cx="29" cy="29" r="29" fill="white"/>
<path d="M21.305 18.3111L22.5727 17.6047C23.7616 16.9431 25.1758 17.4905 25.8772 18.8832L27.2738 21.6577C27.8813 22.8658 27.7981 24.4124 27.0683 25.4803L25.034 28.4529C25.3572 29.9905 25.9792 31.4561 26.8989 32.85C27.7753 34.2007 28.8727 35.3312 30.1261 36.1745L32.8024 34.6334C33.8161 34.051 35.0287 34.3495 35.8082 35.3742L37.6278 37.7607C38.5356 38.9527 38.6063 40.7808 37.7942 42.0386L36.9248 43.3867C36.0584 44.7283 34.6757 45.3834 33.296 45.1036C30.0364 44.4454 26.7721 41.4868 23.4984 36.2286C20.22 30.9622 18.7395 26.288 19.0588 22.2114C19.1928 20.4959 20.0466 19.0116 21.305 18.3111Z" fill="#0085FF"/>
</svg>
