<svg width="17" height="17" viewBox="0 0 17 17" fill="none" xmlns="http://www.w3.org/2000/svg">
<path d="M8.79671 1.00667C8.91109 1.00667 9.0246 1.00667 9.13724 1.00667C8.02407 2.00142 7.30855 3.33987 7.11506 4.78935C6.92157 6.23883 7.26234 7.70769 8.07814 8.94061C8.89394 10.1735 10.1332 11.0925 11.5805 11.5379C13.0277 11.9832 14.5915 11.9268 16 11.3783C15.4582 12.6321 14.5727 13.7209 13.4379 14.5285C12.3031 15.3362 10.9616 15.8325 9.55655 15.9645C8.15148 16.0964 6.7355 15.8591 5.45968 15.2778C4.18386 14.6965 3.09604 13.7931 2.31226 12.6638C1.52848 11.5346 1.07814 10.2219 1.00928 8.86581C0.940426 7.50971 1.25563 6.16108 1.92127 4.96376C2.58692 3.76644 3.57803 2.76535 4.78889 2.06728C5.99975 1.3692 7.38495 1.00033 8.79671 1V1.00667Z" stroke="#3B3B3B" stroke-width="1.5" stroke-linecap="round" stroke-linejoin="round"/>
</svg>
