<svg width="34" height="28" viewBox="0 0 34 28" fill="none" xmlns="http://www.w3.org/2000/svg">
<path d="M14.968 21.2014L20.9667 15.2028L26.9654 21.2014L28.568 19.5987L22.5694 13.6001L28.568 7.60139L26.9654 5.99872L20.9667 11.9973L14.968 5.99872L13.3654 7.60139L19.364 13.6001L13.3654 19.5987L14.968 21.2014Z" fill="#232323"/>
<path d="M32.3 0H12.6539C12.4231 0.000383062 12.1947 0.0476128 11.9826 0.13883C11.7705 0.230047 11.5791 0.363355 11.42 0.530683L0 12.5816V14.6184L11.42 26.6693C11.5791 26.8366 11.7705 26.97 11.9826 27.0612C12.1947 27.1524 12.4231 27.1996 12.6539 27.2H32.3C32.7507 27.1995 33.1828 27.0202 33.5015 26.7015C33.8202 26.3828 33.9995 25.9507 34 25.5V1.7C33.9995 1.24929 33.8202 0.817196 33.5015 0.498498C33.1828 0.1798 32.7507 0.000524907 32.3 0ZM31.7333 24.9333H12.8976L2.26667 13.715V13.485L12.8976 2.26667H31.7333V24.9333Z" fill="#232323"/>
</svg>
