<svg width="28" height="28" viewBox="0 0 28 28" fill="none" xmlns="http://www.w3.org/2000/svg">
<path d="M23.625 14.2835C24.5811 13.5272 25.3231 12.5342 25.7775 11.403C26.089 12.313 26.25 13.3315 26.25 14.469C26.25 17.185 25.291 19.089 24.3075 20.314C23.8573 20.8773 23.3334 21.3776 22.75 21.8015V23.625C22.75 24.3212 22.4734 24.9889 21.9812 25.4812C21.4889 25.9734 20.8212 26.25 20.125 26.25H19.25C18.7859 26.25 18.3408 26.0656 18.0126 25.7374C17.6844 25.4093 17.5 24.9641 17.5 24.5H14C14 24.9641 13.8156 25.4093 13.4874 25.7374C13.1592 26.0656 12.7141 26.25 12.25 26.25H11.375C10.6788 26.25 10.0111 25.9734 9.51884 25.4812C9.02656 24.9889 8.75 24.3212 8.75 23.625V23.2523C7.63265 22.8956 6.61803 22.2742 5.7925 21.441C4.75825 20.3893 4.17725 19.075 3.885 18.2508C3.85094 18.1372 3.79055 18.0334 3.70874 17.9476C3.62694 17.8619 3.52604 17.7966 3.41425 17.7573C2.93554 17.6217 2.51407 17.3338 2.21374 16.9372C1.91341 16.5405 1.7506 16.0568 1.75 15.5593V14.1698C1.75 13.1618 2.4185 12.2763 3.38625 11.9998C3.56825 11.9473 3.76425 11.7705 3.8605 11.4783C4.09675 10.766 4.55 9.71251 5.383 8.86901C6.09966 8.15148 6.91956 7.54512 7.8155 7.07001V3.78526C7.81653 3.51928 7.89728 3.25971 8.04733 3.0401C8.19739 2.82048 8.40984 2.6509 8.65725 2.55326C8.89791 2.45333 9.16229 2.42494 9.41868 2.4715C9.67507 2.51806 9.91259 2.63759 10.1027 2.81576C10.5455 3.23401 11.1265 3.73276 11.7477 4.14051C12.3865 4.55876 12.985 4.82301 13.4732 4.87201H13.482C12.545 6.26172 12.1366 7.94095 12.3305 9.60576C12.5422 11.4065 13.9352 12.488 15.1042 12.9728L19.2868 14.7035C20.454 15.1883 22.204 15.407 23.6268 14.2835H23.625ZM8.3125 13.125C8.6606 13.125 8.99444 12.9867 9.24058 12.7406C9.48672 12.4944 9.625 12.1606 9.625 11.8125C9.625 11.4644 9.48672 11.1306 9.24058 10.8844C8.99444 10.6383 8.6606 10.5 8.3125 10.5C7.9644 10.5 7.63056 10.6383 7.38442 10.8844C7.13828 11.1306 7 11.4644 7 11.8125C7 12.1606 7.13828 12.4944 7.38442 12.7406C7.63056 12.9867 7.9644 13.125 8.3125 13.125ZM14.4025 6.86001C14.6992 6.11114 15.1642 5.44057 15.7615 4.90021C16.3588 4.35985 17.0725 3.96418 17.8473 3.74382C18.622 3.52347 19.4371 3.48434 20.2294 3.62947C21.0217 3.7746 21.77 4.1001 22.4163 4.58076C23.0627 5.06142 23.5898 5.68437 23.9568 6.40138C24.3238 7.11839 24.5209 7.91024 24.5329 8.71563C24.5448 9.52103 24.3713 10.3184 24.0257 11.046C23.6802 11.7736 23.1718 12.4119 22.54 12.9115C21.812 13.4855 20.8127 13.4418 19.9552 13.0865L15.7727 11.354C14.9152 11.0005 14.1767 10.3233 14.0682 9.40276C14.0164 8.95703 14.0223 8.50648 14.0857 8.06226L14.4025 6.86001ZM14.4025 6.86001L14.1645 7.62651C14.2243 7.36533 14.3038 7.10909 14.4025 6.86001Z" fill="white"/>
</svg>
