<svg width="28" height="28" viewBox="0 0 28 28" fill="none" xmlns="http://www.w3.org/2000/svg">
<path d="M14 2.33334C7.56 2.33334 2.33333 7.56001 2.33333 14C2.33333 20.44 7.56 25.6667 14 25.6667C20.44 25.6667 25.6667 20.44 25.6667 14C25.6667 7.56001 20.44 2.33334 14 2.33334ZM14 5.83334C15.9367 5.83334 17.5 7.39668 17.5 9.33334C17.5 11.27 15.9367 12.8333 14 12.8333C12.0633 12.8333 10.5 11.27 10.5 9.33334C10.5 7.39668 12.0633 5.83334 14 5.83334ZM14 22.4C12.6138 22.4 11.2492 22.057 10.0278 21.4015C8.80643 20.746 7.76624 19.7985 7 18.6433C7.035 16.3217 11.6667 15.05 14 15.05C16.3217 15.05 20.965 16.3217 21 18.6433C20.2338 19.7985 19.1936 20.746 17.9722 21.4015C16.7508 22.057 15.3862 22.4 14 22.4Z" fill="white"/>
</svg>
