<svg width="58" height="58" viewBox="0 0 58 58" fill="none" xmlns="http://www.w3.org/2000/svg">
<circle cx="29" cy="29" r="29" fill="white"/>
<path d="M42.3169 35.748C40.2498 36.9336 37.9966 37.7486 35.6563 38.1571C33.4872 38.5178 29.4065 37.6475 29.4065 36.6194C29.4065 36.2296 32.9858 37.5792 35.1493 36.9666C36.8059 36.4962 36.574 34.8486 35.6706 34.6314C34.7672 34.4141 29.5136 32.3701 27.2661 32.2995C25.6094 32.3908 23.9605 32.5943 22.3306 32.9088C21.8976 32.9838 21.626 32.9749 21.5983 33.415C21.4724 35.459 21.2251 39.64 21.0892 41.8229C21.0892 41.8688 21.1466 42.4949 21.6293 42.0525C21.8718 41.7725 22.1733 41.5514 22.5115 41.4056C22.8497 41.2598 23.2159 41.193 23.5829 41.2102C24.6575 41.469 33.9566 43.2766 35.2388 42.9608C38.1263 41.7867 40.8296 40.1918 43.2634 38.2266C44.8095 36.6541 43.6079 34.9931 42.3169 35.748Z" fill="#2D9DAE"/>
<path d="M18.939 32.8326L13.8421 32.5784C13.6412 32.5758 13.445 32.6401 13.2836 32.7615C13.1222 32.8829 13.0045 33.0546 12.9487 33.2504L12.0221 41.7837C11.9951 41.8687 11.9886 41.959 12.003 42.047C12.0175 42.1351 12.0525 42.2184 12.1051 42.29C12.1577 42.3615 12.2265 42.4193 12.3056 42.4585C12.3847 42.4976 12.4719 42.517 12.5599 42.515H18.2089C18.4012 42.5212 18.5885 42.4524 18.7323 42.3228C18.8761 42.1933 18.9655 42.0127 18.982 41.8184L19.6027 33.5965C19.6105 33.5017 19.5994 33.4063 19.5699 33.316C19.5405 33.2257 19.4934 33.1424 19.4314 33.0711C19.3694 32.9997 19.2938 32.9418 19.2092 32.9009C19.1245 32.8599 19.0326 32.8367 18.939 32.8326V32.8326ZM15.9383 41.3838C15.6596 41.3838 15.3871 41.3 15.1554 41.143C14.9236 40.9859 14.743 40.7627 14.6363 40.5016C14.5297 40.2405 14.5018 39.9531 14.5562 39.6759C14.6105 39.3987 14.7447 39.144 14.9418 38.9442C15.1389 38.7443 15.39 38.6082 15.6634 38.553C15.9367 38.4979 16.2201 38.5262 16.4776 38.6344C16.7351 38.7425 16.9552 38.9257 17.11 39.1607C17.2649 39.3957 17.3475 39.672 17.3475 39.9547C17.3475 40.3337 17.199 40.6972 16.9348 40.9653C16.6705 41.2333 16.312 41.3838 15.9383 41.3838V41.3838Z" fill="#2D9DAE"/>
<path d="M35.2531 15C33.5232 15 31.8321 15.5202 30.3936 16.4949C28.9552 17.4696 27.8341 18.855 27.1721 20.4758C26.5101 22.0967 26.3369 23.8802 26.6744 25.6009C27.0119 27.3216 27.8449 28.9022 29.0682 30.1427C30.2915 31.3833 31.85 32.2281 33.5467 32.5704C35.2434 32.9126 37.0021 32.737 38.6004 32.0656C40.1987 31.3942 41.5648 30.2573 42.5259 28.7985C43.487 27.3398 44 25.6248 44 23.8704C44 21.5178 43.0785 19.2616 41.4381 17.5981C39.7978 15.9346 37.5729 15 35.2531 15ZM35.2531 30.68C33.9239 30.6802 32.6246 30.2807 31.5193 29.532C30.414 28.7832 29.5524 27.7189 29.0436 26.4736C28.5348 25.2283 28.4016 23.858 28.6608 22.5359C28.9199 21.2138 29.5599 19.9994 30.4997 19.0461C31.4395 18.0929 32.6369 17.4437 33.9406 17.1806C35.2442 16.9176 36.5955 17.0525 37.8235 17.5683C39.0516 18.0841 40.1012 18.9576 40.8397 20.0784C41.5781 21.1991 41.9723 22.5168 41.9723 23.8648C41.973 24.7602 41.7998 25.6469 41.4625 26.4743C41.1251 27.3018 40.6303 28.0537 40.0063 28.6871C39.3824 29.3205 38.6414 29.8231 37.8258 30.166C37.0102 30.5089 36.136 30.6855 35.2531 30.6856V30.68Z" fill="#2D9DAE"/>
<path d="M38.7442 24.3184H37.7093V23.3104H38.7442C38.8189 23.3104 38.8905 23.2803 38.9433 23.2268C38.9961 23.1732 39.0258 23.1005 39.0258 23.0248C39.0258 22.9491 38.9961 22.8764 38.9433 22.8229C38.8905 22.7693 38.8189 22.7392 38.7442 22.7392H37.7093V21.3403C37.7236 21.1815 37.6817 21.0227 37.5912 20.8923C37.5526 20.8491 37.5048 20.8153 37.4514 20.7935C37.398 20.7718 37.3404 20.7627 37.283 20.7669C37.2273 20.7634 37.1714 20.773 37.1199 20.7949C37.0684 20.8169 37.0225 20.8506 36.986 20.8934C36.8967 21.0244 36.8552 21.1828 36.8689 21.3414V22.7403H34.9229L34.0979 21.4702L33.8958 21.1488C33.8469 21.0687 33.7903 20.9936 33.7269 20.9248C33.6793 20.8775 33.6235 20.8395 33.5623 20.8128C33.4923 20.7836 33.4171 20.7695 33.3414 20.7714C33.2282 20.771 33.1175 20.8049 33.0234 20.8688C32.9306 20.9264 32.8577 21.0117 32.8146 21.113C32.7716 21.2512 32.7525 21.396 32.7583 21.5408V22.7426H31.729C31.6543 22.7426 31.5827 22.7727 31.5299 22.8262C31.4771 22.8798 31.4474 22.9524 31.4474 23.0282C31.4474 23.1039 31.4771 23.1766 31.5299 23.2301C31.5827 23.2837 31.6543 23.3138 31.729 23.3138H32.7528V24.3218H31.729C31.6575 24.3263 31.5904 24.3583 31.5414 24.4113C31.4923 24.4642 31.465 24.5342 31.465 24.6068C31.465 24.6795 31.4923 24.7494 31.5414 24.8023C31.5904 24.8553 31.6575 24.8873 31.729 24.8918H32.7528V26.489C32.7404 26.6462 32.7839 26.8027 32.8754 26.9302C32.9134 26.9747 32.9609 27.0097 33.0143 27.0326C33.0677 27.0555 33.1256 27.0657 33.1835 27.0624C33.2414 27.0646 33.2991 27.0536 33.3522 27.0301C33.4054 27.0066 33.4526 26.9714 33.4905 26.9269C33.5838 26.8006 33.6282 26.644 33.6153 26.4867V24.8896H35.3757L36.3277 26.3669C36.394 26.4643 36.4625 26.564 36.5309 26.6603C36.5894 26.7421 36.6564 26.8172 36.7308 26.8843C36.7899 26.9394 36.8589 26.9824 36.9341 27.0109C37.0158 27.039 37.1017 27.0527 37.1881 27.0512C37.4454 27.0512 37.7093 26.9717 37.7093 26.3792V24.8896H38.7442C38.8189 24.8896 38.8905 24.8595 38.9433 24.806C38.9961 24.7524 39.0258 24.6797 39.0258 24.604C39.0258 24.5283 38.9961 24.4556 38.9433 24.4021C38.8905 24.3485 38.8189 24.3184 38.7442 24.3184V24.3184ZM36.8667 23.3104V24.3184H35.95L35.2929 23.3104H36.8667ZM33.6142 22.1523L33.9919 22.7403H33.6142V22.1523ZM33.6142 24.3184V23.3104H34.3597L35.008 24.3184H33.6142ZM36.8689 25.7251L36.3244 24.8885H36.8689V25.7251Z" fill="#2D9DAE"/>
</svg>
