<svg width="58" height="58" viewBox="0 0 58 58" fill="none" xmlns="http://www.w3.org/2000/svg">
<circle cx="29" cy="29" r="29" fill="white"/>
<path d="M29.5 22.25C34.9529 22.25 40.0404 24.3359 43.8267 28.1222L46.0066 25.9423C41.6391 21.5732 35.7761 19.1667 29.5 19.1667C23.2239 19.1682 17.3609 21.5732 12.9934 25.9423L15.1733 28.1222C18.9596 24.3359 24.0471 22.25 29.5 22.25ZM38.2428 35.0566C33.5037 30.3175 25.4963 30.3175 20.7572 35.0566L22.9371 37.2365C26.4938 33.6799 32.5063 33.6799 36.0629 37.2365L38.2428 35.0566Z" fill="#D11212"/>
<path d="M42.507 30.41C35.4585 23.3585 23.543 23.3585 16.4945 30.41L18.6744 32.59C24.5435 26.7208 34.458 26.7208 40.3271 32.59L42.507 30.41Z" fill="#D11212"/>
<path d="M29.5 43.8333C31.2029 43.8333 32.5833 42.4529 32.5833 40.75C32.5833 39.0471 31.2029 37.6667 29.5 37.6667C27.7971 37.6667 26.4167 39.0471 26.4167 40.75C26.4167 42.4529 27.7971 43.8333 29.5 43.8333Z" fill="#D11212"/>
</svg>
