<svg width="44" height="44" viewBox="0 0 44 44" fill="none" xmlns="http://www.w3.org/2000/svg">
<path d="M9.27273 4C7.34388 4 5.49403 4.72792 4.13013 6.02363C2.76623 7.31933 2 9.07669 2 10.9091V16.6799C2 17.138 2.19156 17.5773 2.53253 17.9013C2.87351 18.2252 3.33597 18.4072 3.81818 18.4072C4.30039 18.4072 4.76285 18.2252 5.10383 17.9013C5.44481 17.5773 5.63636 17.138 5.63636 16.6799V10.9091C5.63636 9.99289 6.01948 9.11421 6.70143 8.46636C7.38338 7.81851 8.3083 7.45455 9.27273 7.45455H15.3509C15.8331 7.45455 16.2956 7.27257 16.6366 6.94864C16.9775 6.62471 17.1691 6.18537 17.1691 5.72727C17.1691 5.26917 16.9775 4.82983 16.6366 4.50591C16.2956 4.18198 15.8331 4 15.3509 4H9.27273ZM28.6527 4C28.1705 4 27.7081 4.18198 27.3671 4.50591C27.0261 4.82983 26.8345 5.26917 26.8345 5.72727C26.8345 6.18537 27.0261 6.62471 27.3671 6.94864C27.7081 7.27257 28.1705 7.45455 28.6527 7.45455H34.7273C35.6917 7.45455 36.6166 7.81851 37.2986 8.46636C37.9805 9.11421 38.3636 9.99289 38.3636 10.9091V16.6799C38.3636 17.138 38.5552 17.5773 38.8962 17.9013C39.2371 18.2252 39.6996 18.4072 40.1818 18.4072C40.664 18.4072 41.1265 18.2252 41.4675 17.9013C41.8084 17.5773 42 17.138 42 16.6799V10.9091C42 9.07669 41.2338 7.31933 39.8699 6.02363C38.506 4.72792 36.6561 4 34.7273 4H28.6527ZM5.63636 29.3201C5.63636 28.862 5.44481 28.4226 5.10383 28.0987C4.76285 27.7748 4.30039 27.5928 3.81818 27.5928C3.33597 27.5928 2.87351 27.7748 2.53253 28.0987C2.19156 28.4226 2 28.862 2 29.3201V35.0909C2 36.9233 2.76623 38.6807 4.13013 39.9764C5.49403 41.2721 7.34388 42 9.27273 42H15.3473C15.8295 42 16.2919 41.818 16.6329 41.4941C16.9739 41.1702 17.1655 40.7308 17.1655 40.2727C17.1655 39.8146 16.9739 39.3753 16.6329 39.0514C16.2919 38.7274 15.8295 38.5455 15.3473 38.5455H9.27273C8.3083 38.5455 7.38338 38.1815 6.70143 37.5336C6.01948 36.8858 5.63636 36.0071 5.63636 35.0909V29.3201ZM42 29.3201C42 28.862 41.8084 28.4226 41.4675 28.0987C41.1265 27.7748 40.664 27.5928 40.1818 27.5928C39.6996 27.5928 39.2371 27.7748 38.8962 28.0987C38.5552 28.4226 38.3636 28.862 38.3636 29.3201V35.0909C38.3636 36.0071 37.9805 36.8858 37.2986 37.5336C36.6166 38.1815 35.6917 38.5455 34.7273 38.5455H28.6527C28.1705 38.5455 27.7081 38.7274 27.3671 39.0514C27.0261 39.3753 26.8345 39.8146 26.8345 40.2727C26.8345 40.7308 27.0261 41.1702 27.3671 41.4941C27.7081 41.818 28.1705 42 28.6527 42H34.7273C36.6561 42 38.506 41.2721 39.8699 39.9764C41.2338 38.6807 42 36.9233 42 35.0909V29.3201ZM12.4545 21.2727C11.9723 21.2727 11.5099 21.4547 11.1689 21.7786C10.8279 22.1026 10.6364 22.5419 10.6364 23C10.6364 23.4581 10.8279 23.8974 11.1689 24.2214C11.5099 24.5453 11.9723 24.7273 12.4545 24.7273H31.5455C32.0277 24.7273 32.4901 24.5453 32.8311 24.2214C33.1721 23.8974 33.3636 23.4581 33.3636 23C33.3636 22.5419 33.1721 22.1026 32.8311 21.7786C32.4901 21.4547 32.0277 21.2727 31.5455 21.2727H12.4545Z" fill="#242424"/>
<rect x="7" y="16" width="29" height="16" rx="3" fill="#242424"/>
<path d="M15.2105 24.8832C15.2105 25.2432 15.1205 25.5765 14.9405 25.8832C14.7605 26.1832 14.4939 26.4265 14.1405 26.6132C13.7872 26.7932 13.3572 26.8832 12.8505 26.8832C12.3505 26.8832 11.9039 26.7998 11.5105 26.6332C11.1172 26.4598 10.8005 26.2132 10.5605 25.8932C10.3272 25.5732 10.1939 25.1998 10.1605 24.7732H11.6605C11.6939 25.0598 11.8072 25.2998 12.0005 25.4932C12.2005 25.6798 12.4639 25.7732 12.7905 25.7732C13.0839 25.7732 13.3072 25.6965 13.4605 25.5432C13.6205 25.3832 13.7005 25.1798 13.7005 24.9332C13.7005 24.7132 13.6372 24.5332 13.5105 24.3932C13.3839 24.2465 13.2239 24.1298 13.0305 24.0432C12.8372 23.9565 12.5705 23.8565 12.2305 23.7432C11.7905 23.5965 11.4305 23.4532 11.1505 23.3132C10.8705 23.1665 10.6305 22.9565 10.4305 22.6832C10.2372 22.4098 10.1405 22.0532 10.1405 21.6132C10.1405 21.0065 10.3572 20.5298 10.7905 20.1832C11.2305 19.8298 11.8105 19.6532 12.5305 19.6532C13.2772 19.6532 13.8705 19.8332 14.3105 20.1932C14.7572 20.5532 15.0105 21.0332 15.0705 21.6332H13.5505C13.5105 21.3798 13.4039 21.1732 13.2305 21.0132C13.0572 20.8465 12.8205 20.7632 12.5205 20.7632C12.2605 20.7632 12.0505 20.8332 11.8905 20.9732C11.7305 21.1065 11.6505 21.3032 11.6505 21.5632C11.6505 21.7698 11.7105 21.9432 11.8305 22.0832C11.9572 22.2165 12.1139 22.3265 12.3005 22.4132C12.4939 22.4998 12.7539 22.5965 13.0805 22.7032C13.5339 22.8632 13.9005 23.0132 14.1805 23.1532C14.4672 23.2932 14.7105 23.5032 14.9105 23.7832C15.1105 24.0632 15.2105 24.4298 15.2105 24.8832ZM18.4392 21.2032C19.1525 21.2032 19.7459 21.3965 20.2192 21.7832C20.6992 22.1698 20.9992 22.6965 21.1192 23.3632H19.6292C19.5692 23.0698 19.4325 22.8398 19.2192 22.6732C19.0059 22.4998 18.7359 22.4132 18.4092 22.4132C18.0359 22.4132 17.7225 22.5532 17.4692 22.8332C17.2225 23.1065 17.0992 23.5098 17.0992 24.0432C17.0992 24.5765 17.2225 24.9832 17.4692 25.2632C17.7225 25.5365 18.0359 25.6732 18.4092 25.6732C18.7359 25.6732 19.0059 25.5898 19.2192 25.4232C19.4325 25.2498 19.5692 25.0165 19.6292 24.7232H21.1192C20.9992 25.3898 20.6992 25.9165 20.2192 26.3032C19.7459 26.6898 19.1525 26.8832 18.4392 26.8832C17.8992 26.8832 17.4192 26.7698 16.9992 26.5432C16.5792 26.3098 16.2525 25.9798 16.0192 25.5532C15.7859 25.1265 15.6692 24.6232 15.6692 24.0432C15.6692 23.4632 15.7859 22.9598 16.0192 22.5332C16.2525 22.0998 16.5792 21.7698 16.9992 21.5432C17.4192 21.3165 17.8992 21.2032 18.4392 21.2032ZM23.9911 21.2032C24.4578 21.2032 24.8578 21.3132 25.1911 21.5332C25.5244 21.7532 25.7611 22.0498 25.9011 22.4232V21.2732H27.3011V26.8132H25.9011V25.6532C25.7611 26.0265 25.5244 26.3265 25.1911 26.5532C24.8578 26.7732 24.4578 26.8832 23.9911 26.8832C23.5244 26.8832 23.1044 26.7698 22.7311 26.5432C22.3578 26.3165 22.0644 25.9898 21.8511 25.5632C21.6444 25.1298 21.5411 24.6232 21.5411 24.0432C21.5411 23.4632 21.6444 22.9598 21.8511 22.5332C22.0644 22.0998 22.3578 21.7698 22.7311 21.5432C23.1044 21.3165 23.5244 21.2032 23.9911 21.2032ZM24.4311 22.4332C23.9911 22.4332 23.6378 22.5765 23.3711 22.8632C23.1044 23.1498 22.9711 23.5432 22.9711 24.0432C22.9711 24.5432 23.1044 24.9365 23.3711 25.2232C23.6378 25.5032 23.9911 25.6432 24.4311 25.6432C24.8578 25.6432 25.2078 25.4998 25.4811 25.2132C25.7611 24.9198 25.9011 24.5298 25.9011 24.0432C25.9011 23.5498 25.7611 23.1598 25.4811 22.8732C25.2078 22.5798 24.8578 22.4332 24.4311 22.4332ZM31.5789 21.1932C32.2189 21.1932 32.7289 21.4032 33.1089 21.8232C33.4889 22.2432 33.6789 22.8332 33.6789 23.5932V26.8132H32.2789V23.7532C32.2789 23.3132 32.1656 22.9732 31.9389 22.7332C31.7122 22.4865 31.4022 22.3632 31.0089 22.3632C30.6089 22.3632 30.2889 22.4932 30.0489 22.7532C29.8089 23.0132 29.6889 23.3865 29.6889 23.8732V26.8132H28.2789V21.2732H29.6889V22.3832C29.8356 22.0098 30.0756 21.7198 30.4089 21.5132C30.7489 21.2998 31.1389 21.1932 31.5789 21.1932Z" fill="white"/>
</svg>
