<svg width="58" height="58" viewBox="0 0 58 58" fill="none" xmlns="http://www.w3.org/2000/svg">
<circle cx="29" cy="29" r="29" fill="white"/>
<path d="M42.3694 17.8263C42.1922 17.6751 41.9684 17.5705 41.7243 17.5247C41.4802 17.4788 41.2259 17.4937 40.9912 17.5675L12.1162 26.5675C11.8672 26.6485 11.6528 26.7924 11.5015 26.9803C11.3503 27.1682 11.2692 27.3911 11.2692 27.6194C11.2692 27.8477 11.3503 28.0705 11.5015 28.2584C11.6528 28.4463 11.8672 28.5903 12.1162 28.6713L23.3906 32.53L31.7119 25.375L33.5625 26.9612L25.2019 34.1275L29.7169 43.7913C29.8141 44.0006 29.9825 44.18 30.2001 44.3064C30.4177 44.4328 30.6746 44.5002 30.9375 44.5C31.2027 44.4953 31.4601 44.4219 31.6757 44.2893C31.8912 44.1568 32.0549 43.9714 32.145 43.7575L42.645 19.0075C42.7344 18.8085 42.756 18.5917 42.7072 18.3826C42.6584 18.1734 42.5412 17.9805 42.3694 17.8263Z" fill="#281BFF"/>
</svg>
