<svg width="44" height="44" viewBox="0 0 44 44" fill="none" xmlns="http://www.w3.org/2000/svg">
<path d="M27.5 38.5V32.0834C27.5 30.25 27.6833 29.5167 26.5833 28.4167C31.7167 27.8667 36.6667 25.85 36.6667 17.4167C36.6644 15.2258 35.8097 13.1218 34.2833 11.55C34.9992 9.64697 34.9333 7.53802 34.1 5.68337C34.1 5.68337 32.0833 5.13337 27.6833 8.0667C23.9566 7.09611 20.0434 7.09611 16.3167 8.0667C11.9167 5.13337 9.9 5.68337 9.9 5.68337C9.06672 7.53802 9.00081 9.64697 9.71667 11.55C8.19033 13.1218 7.33557 15.2258 7.33333 17.4167C7.33333 25.85 12.2833 27.8667 17.4167 28.4167C16.3167 29.5167 16.3167 30.6167 16.5 32.0834V38.5M16.5 34.8334C8.61667 37.4 8.61667 30.25 5.5 29.3334L16.5 34.8334Z" stroke="#2C3E50" stroke-width="2.75" stroke-linecap="round" stroke-linejoin="round"/>
</svg>
