<svg width="44" height="44" viewBox="0 0 44 44" fill="none" xmlns="http://www.w3.org/2000/svg">
<path d="M21.9998 29.3333C26.0499 29.3333 29.3332 26.05 29.3332 22C29.3332 17.9499 26.0499 14.6666 21.9998 14.6666C17.9497 14.6666 14.6665 17.9499 14.6665 22C14.6665 26.05 17.9497 29.3333 21.9998 29.3333Z" stroke="#2C3E50" stroke-width="2.75" stroke-linecap="round" stroke-linejoin="round"/>
<path d="M11.55 32.45L10.2667 33.7333M5.5 22H7.33333H5.5ZM22 5.5V7.33333V5.5ZM36.6667 22H38.5H36.6667ZM22 36.6667V38.5V36.6667ZM10.2667 10.2667L11.55 11.55L10.2667 10.2667ZM33.7333 10.2667L32.45 11.55L33.7333 10.2667ZM32.45 32.45L33.7333 33.7333L32.45 32.45Z" stroke="#2C3E50" stroke-width="2.75" stroke-linecap="round" stroke-linejoin="round"/>
</svg>
