<svg width="44" height="44" viewBox="0 0 44 44" fill="none" xmlns="http://www.w3.org/2000/svg">
<path d="M40.3332 7.35169C38.4998 8.25002 36.7032 8.61486 34.8332 9.16669C32.778 6.84752 29.731 6.71919 26.8032 7.81552C23.8753 8.91186 21.9577 11.5922 21.9998 14.6667V16.5C16.0507 16.6522 10.7523 13.9425 7.33317 9.16669C7.33317 9.16669 -0.33383 22.7939 14.6665 29.3334C11.2345 31.6195 7.81167 33.1614 3.6665 33C9.73117 36.3055 16.3403 37.4422 22.0622 35.7812C28.6255 33.8745 34.0192 28.9557 36.089 21.5875C36.7065 19.3466 37.013 17.0314 37.0002 14.707C36.9965 14.2505 39.7685 9.62502 40.3332 7.34986V7.35169Z" stroke="#2C3E50" stroke-width="2.75" stroke-linecap="round" stroke-linejoin="round"/>
</svg>
